<svg id="visual" viewBox="0 0 960 540" width="960" height="540" xmlns="http://www.w3.org/2000/svg" xmlns:xlink="http://www.w3.org/1999/xlink" version="1.1"><rect x="0" y="0" width="960" height="540" fill="#ffffff"></rect><defs><linearGradient id="grad1_0" x1="43.8%" y1="100%" x2="100%" y2="0%"><stop offset="14.444444444444446%" stop-color="#0066ff" stop-opacity="1"></stop><stop offset="85.55555555555554%" stop-color="#0066ff" stop-opacity="1"></stop></linearGradient></defs><defs><linearGradient id="grad1_1" x1="43.8%" y1="100%" x2="100%" y2="0%"><stop offset="14.444444444444446%" stop-color="#0066ff" stop-opacity="1"></stop><stop offset="85.55555555555554%" stop-color="#7789ff" stop-opacity="1"></stop></linearGradient></defs><defs><linearGradient id="grad1_2" x1="43.8%" y1="100%" x2="100%" y2="0%"><stop offset="14.444444444444446%" stop-color="#acafff" stop-opacity="1"></stop><stop offset="85.55555555555554%" stop-color="#7789ff" stop-opacity="1"></stop></linearGradient></defs><defs><linearGradient id="grad1_3" x1="43.8%" y1="100%" x2="100%" y2="0%"><stop offset="14.444444444444446%" stop-color="#acafff" stop-opacity="1"></stop><stop offset="85.55555555555554%" stop-color="#d7d6ff" stop-opacity="1"></stop></linearGradient></defs><defs><linearGradient id="grad1_4" x1="43.8%" y1="100%" x2="100%" y2="0%"><stop offset="14.444444444444446%" stop-color="#ffffff" stop-opacity="1"></stop><stop offset="85.55555555555554%" stop-color="#d7d6ff" stop-opacity="1"></stop></linearGradient></defs><defs><linearGradient id="grad2_0" x1="0%" y1="100%" x2="56.3%" y2="0%"><stop offset="14.444444444444446%" stop-color="#0066ff" stop-opacity="1"></stop><stop offset="85.55555555555554%" stop-color="#0066ff" stop-opacity="1"></stop></linearGradient></defs><defs><linearGradient id="grad2_1" x1="0%" y1="100%" x2="56.3%" y2="0%"><stop offset="14.444444444444446%" stop-color="#7789ff" stop-opacity="1"></stop><stop offset="85.55555555555554%" stop-color="#0066ff" stop-opacity="1"></stop></linearGradient></defs><defs><linearGradient id="grad2_2" x1="0%" y1="100%" x2="56.3%" y2="0%"><stop offset="14.444444444444446%" stop-color="#7789ff" stop-opacity="1"></stop><stop offset="85.55555555555554%" stop-color="#acafff" stop-opacity="1"></stop></linearGradient></defs><defs><linearGradient id="grad2_3" x1="0%" y1="100%" x2="56.3%" y2="0%"><stop offset="14.444444444444446%" stop-color="#d7d6ff" stop-opacity="1"></stop><stop offset="85.55555555555554%" stop-color="#acafff" stop-opacity="1"></stop></linearGradient></defs><defs><linearGradient id="grad2_4" x1="0%" y1="100%" x2="56.3%" y2="0%"><stop offset="14.444444444444446%" stop-color="#d7d6ff" stop-opacity="1"></stop><stop offset="85.55555555555554%" stop-color="#ffffff" stop-opacity="1"></stop></linearGradient></defs><g transform="translate(960, 540)"><path d="M-324 0C-322.9 -29.2 -321.9 -58.4 -311 -83.3C-300.2 -108.3 -279.6 -129 -265.9 -153.5C-252.2 -178 -245.4 -206.1 -229.1 -229.1C-212.8 -252.1 -187 -269.8 -159.5 -276.3C-132 -282.7 -102.9 -277.9 -76.1 -284C-49.2 -290.1 -24.6 -307 0 -324L0 0Z" fill="#eceaff"></path><path d="M-259.2 0C-258.3 -23.4 -257.5 -46.7 -248.8 -66.7C-240.1 -86.6 -223.7 -103.2 -212.7 -122.8C-201.7 -142.4 -196.3 -164.9 -183.3 -183.3C-170.2 -201.7 -149.6 -215.8 -127.6 -221C-105.6 -226.2 -82.4 -222.3 -60.9 -227.2C-39.4 -232 -19.7 -245.6 0 -259.2L0 0Z" fill="#c2c2ff"></path><path d="M-194.4 0C-193.8 -17.5 -193.1 -35 -186.6 -50C-180.1 -65 -167.7 -77.4 -159.5 -92.1C-151.3 -106.8 -147.2 -123.7 -137.5 -137.5C-127.7 -151.2 -112.2 -161.9 -95.7 -165.8C-79.2 -169.6 -61.8 -166.7 -45.7 -170.4C-29.5 -174 -14.8 -184.2 0 -194.4L0 0Z" fill="#939cff"></path><path d="M-129.6 0C-129.2 -11.7 -128.7 -23.4 -124.4 -33.3C-120.1 -43.3 -111.8 -51.6 -106.3 -61.4C-100.9 -71.2 -98.2 -82.5 -91.6 -91.6C-85.1 -100.8 -74.8 -107.9 -63.8 -110.5C-52.8 -113.1 -41.2 -111.2 -30.4 -113.6C-19.7 -116 -9.8 -122.8 0 -129.6L0 0Z" fill="#5477ff"></path><path d="M-64.8 0C-64.6 -5.8 -64.4 -11.7 -62.2 -16.7C-60 -21.7 -55.9 -25.8 -53.2 -30.7C-50.4 -35.6 -49.1 -41.2 -45.8 -45.8C-42.6 -50.4 -37.4 -54 -31.9 -55.3C-26.4 -56.5 -20.6 -55.6 -15.2 -56.8C-9.8 -58 -4.9 -61.4 0 -64.8L0 0Z" fill="#0066ff"></path></g><g transform="translate(0, 0)"><path d="M324 0C307.9 24.6 291.7 49.2 286.9 76.9C282 104.5 288.4 135.3 280.6 162C272.8 188.7 250.7 211.3 225.6 225.6C200.5 239.8 172.4 245.7 148 256.3C123.6 267 103 282.5 78.9 294.6C54.9 306.7 27.4 315.3 0 324L0 0Z" fill="#eceaff"></path><path d="M259.2 0C246.3 19.7 233.4 39.4 229.5 61.5C225.6 83.6 230.7 108.2 224.5 129.6C218.2 151 200.5 169.1 180.5 180.5C160.4 191.8 137.9 196.5 118.4 205.1C98.9 213.6 82.4 226 63.2 235.7C43.9 245.4 22 252.3 0 259.2L0 0Z" fill="#c2c2ff"></path><path d="M194.4 0C184.7 14.8 175 29.5 172.1 46.1C169.2 62.7 173.1 81.2 168.4 97.2C163.7 113.2 150.4 126.8 135.3 135.3C120.3 143.9 103.4 147.4 88.8 153.8C74.2 160.2 61.8 169.5 47.4 176.8C32.9 184 16.5 189.2 0 194.4L0 0Z" fill="#939cff"></path><path d="M129.6 0C123.1 9.8 116.7 19.7 114.8 30.7C112.8 41.8 115.4 54.1 112.2 64.8C109.1 75.5 100.3 84.5 90.2 90.2C80.2 95.9 68.9 98.3 59.2 102.5C49.5 106.8 41.2 113 31.6 117.8C22 122.7 11 126.1 0 129.6L0 0Z" fill="#5477ff"></path><path d="M64.8 0C61.6 4.9 58.3 9.8 57.4 15.4C56.4 20.9 57.7 27.1 56.1 32.4C54.6 37.7 50.1 42.3 45.1 45.1C40.1 48 34.5 49.1 29.6 51.3C24.7 53.4 20.6 56.5 15.8 58.9C11 61.3 5.5 63.1 0 64.8L0 0Z" fill="#0066ff"></path></g></svg>